<svg width="37" height="61" viewBox="0 0 37 61" fill="none" xmlns="http://www.w3.org/2000/svg">
<path d="M36.114 55.7387C36.114 55.7387 34.7415 56.9587 32.3015 57.2637C30.0902 57.4925 28.2602 57.1112 26.8877 56.73C24.7527 51.3925 20.864 41.8612 20.254 39.65C20.3302 40.1837 22.389 54.595 24.219 59.8562C23.8377 60.3137 23.2277 60.4662 22.389 60.39C19.034 59.8562 16.2127 57.2637 14.6877 58.7887C13.3915 60.085 9.80774 59.78 8.96899 59.2462C10.4177 52.8412 11.7902 43.5387 11.8665 43.0812C11.3327 45.0637 8.20649 52.8412 5.99524 58.255C3.32649 58.4837 0.733985 57.1875 0.810235 56.5775C9.27399 40.3362 10.6465 31.415 10.3415 26.0775C10.0365 21.5025 12.0952 16.3175 12.4002 14.1825C12.629 12.0475 11.2565 8.99747 11.2565 8.99747C10.4177 4.87997 17.8902 5.26122 20.559 3.20247C20.9402 2.05872 21.7027 0.686218 21.7027 0.686218L22.389 0.914968C21.169 4.34622 23.2277 5.64247 22.694 7.92997C22.3127 9.83622 20.9402 10.8275 21.3215 14.4112C21.6265 17.3087 23.8377 20.13 23.914 24.4762C23.9902 27.5262 22.694 30.1187 24.2952 35.075C26.4302 41.7087 31.0052 51.0112 36.114 55.7387Z" fill="#441F0E"/>
</svg>
